<svg xmlns="http://www.w3.org/2000/svg" viewBox="0 0 24 24" width="32" height="32">
  <path d="m21.32 8.783-1.895-.873a.26.26 0 0 0-.335.13l-.568 1.229a.262.262 0 0 0 .129.336l1.895.872a.26.26 0 0 0 .335-.13l.568-1.229a.262.262 0 0 0-.129-.336zM15.542 5a.262.262 0 0 0-.24.162l-3.328 8.67a.26.26 0 0 0 .144.331l1.79.742a.26.26 0 0 0 .335-.136l3.328-8.67a.262.262 0 0 0-.144-.33l-1.79-.744a.261.261 0 0 0-.095-.025zm-6.657 5.7a.262.262 0 0 0-.256.208l-1.56 7.644a.26.26 0 0 0 .204.309l1.865.38a.26.26 0 0 0 .309-.204l1.56-7.644a.26.26 0 0 0-.204-.309l-1.865-.38a.262.262 0 0 0-.053-.004zM3.488 15.586a.262.262 0 0 0-.262.262v2.89c0 .145.118.262.262.262h2.89a.262.262 0 0 0 .262-.262v-2.89a.262.262 0 0 0-.262-.262H3.488z" fill="#2962FF"/>
</svg>
